<mxfile host="app.diagrams.net" modified="2023-04-23T14:15:46.076Z" agent="Mozilla/5.0 (Windows NT 10.0; Win64; x64) AppleWebKit/537.36 (KHTML, like Gecko) Chrome/112.0.0.0 Safari/537.36" etag="p15sB0zAD-b8S6HyKcDB" version="21.2.1" type="device">
  <diagram name="Страница 1" id="vpUOT6Hd4AjRaLMoxnpb">
    <mxGraphModel dx="1050" dy="545" grid="1" gridSize="10" guides="1" tooltips="1" connect="1" arrows="1" fold="1" page="1" pageScale="1" pageWidth="827" pageHeight="1169" math="0" shadow="0">
      <root>
        <mxCell id="0" />
        <mxCell id="1" parent="0" />
        <mxCell id="ZpmLZeM6MjsgTmnixDBK-25" style="edgeStyle=orthogonalEdgeStyle;rounded=0;orthogonalLoop=1;jettySize=auto;html=1;entryX=0;entryY=0.5;entryDx=0;entryDy=0;entryPerimeter=0;" edge="1" parent="1" source="ZpmLZeM6MjsgTmnixDBK-1" target="ZpmLZeM6MjsgTmnixDBK-5">
          <mxGeometry relative="1" as="geometry" />
        </mxCell>
        <mxCell id="ZpmLZeM6MjsgTmnixDBK-1" value="&lt;font style=&quot;font-size: 18px;&quot;&gt;User&lt;/font&gt;" style="verticalLabelPosition=bottom;verticalAlign=top;html=1;shape=mxgraph.flowchart.on-page_reference;" vertex="1" parent="1">
          <mxGeometry x="30" y="110" width="120" height="120" as="geometry" />
        </mxCell>
        <mxCell id="ZpmLZeM6MjsgTmnixDBK-19" style="edgeStyle=orthogonalEdgeStyle;rounded=0;orthogonalLoop=1;jettySize=auto;html=1;entryX=0;entryY=0.25;entryDx=0;entryDy=0;" edge="1" parent="1" source="ZpmLZeM6MjsgTmnixDBK-5" target="ZpmLZeM6MjsgTmnixDBK-13">
          <mxGeometry relative="1" as="geometry">
            <Array as="points">
              <mxPoint x="440" y="133" />
            </Array>
          </mxGeometry>
        </mxCell>
        <mxCell id="ZpmLZeM6MjsgTmnixDBK-26" style="edgeStyle=orthogonalEdgeStyle;rounded=0;orthogonalLoop=1;jettySize=auto;html=1;entryX=1;entryY=0.5;entryDx=0;entryDy=0;entryPerimeter=0;" edge="1" parent="1" source="ZpmLZeM6MjsgTmnixDBK-5" target="ZpmLZeM6MjsgTmnixDBK-1">
          <mxGeometry relative="1" as="geometry" />
        </mxCell>
        <mxCell id="ZpmLZeM6MjsgTmnixDBK-5" value="&lt;font style=&quot;font-size: 18px;&quot;&gt;Client&lt;/font&gt;" style="strokeWidth=2;html=1;shape=mxgraph.flowchart.document2;whiteSpace=wrap;size=0.25;" vertex="1" parent="1">
          <mxGeometry x="240" y="125" width="150" height="90" as="geometry" />
        </mxCell>
        <mxCell id="ZpmLZeM6MjsgTmnixDBK-17" style="edgeStyle=orthogonalEdgeStyle;rounded=0;orthogonalLoop=1;jettySize=auto;html=1;entryX=1;entryY=0.5;entryDx=0;entryDy=0;entryPerimeter=0;" edge="1" parent="1" source="ZpmLZeM6MjsgTmnixDBK-13" target="ZpmLZeM6MjsgTmnixDBK-5">
          <mxGeometry relative="1" as="geometry" />
        </mxCell>
        <mxCell id="ZpmLZeM6MjsgTmnixDBK-23" style="edgeStyle=orthogonalEdgeStyle;rounded=0;orthogonalLoop=1;jettySize=auto;html=1;entryX=0;entryY=0.5;entryDx=0;entryDy=0;entryPerimeter=0;" edge="1" parent="1" source="ZpmLZeM6MjsgTmnixDBK-13" target="ZpmLZeM6MjsgTmnixDBK-22">
          <mxGeometry relative="1" as="geometry" />
        </mxCell>
        <mxCell id="ZpmLZeM6MjsgTmnixDBK-13" value="&lt;font style=&quot;font-size: 20px;&quot;&gt;Server&lt;/font&gt;" style="rounded=1;whiteSpace=wrap;html=1;absoluteArcSize=1;arcSize=14;strokeWidth=2;" vertex="1" parent="1">
          <mxGeometry x="490" y="95" width="150" height="150" as="geometry" />
        </mxCell>
        <mxCell id="ZpmLZeM6MjsgTmnixDBK-20" value="Request" style="text;html=1;strokeColor=none;fillColor=none;align=center;verticalAlign=middle;whiteSpace=wrap;rounded=0;" vertex="1" parent="1">
          <mxGeometry x="410" y="100" width="60" height="30" as="geometry" />
        </mxCell>
        <mxCell id="ZpmLZeM6MjsgTmnixDBK-21" value="Response" style="text;html=1;strokeColor=none;fillColor=none;align=center;verticalAlign=middle;whiteSpace=wrap;rounded=0;" vertex="1" parent="1">
          <mxGeometry x="410" y="140" width="60" height="30" as="geometry" />
        </mxCell>
        <mxCell id="ZpmLZeM6MjsgTmnixDBK-24" style="edgeStyle=orthogonalEdgeStyle;rounded=0;orthogonalLoop=1;jettySize=auto;html=1;entryX=1;entryY=0.5;entryDx=0;entryDy=0;" edge="1" parent="1" source="ZpmLZeM6MjsgTmnixDBK-22" target="ZpmLZeM6MjsgTmnixDBK-13">
          <mxGeometry relative="1" as="geometry" />
        </mxCell>
        <mxCell id="ZpmLZeM6MjsgTmnixDBK-22" value="&lt;font style=&quot;font-size: 18px;&quot;&gt;Database&lt;/font&gt;" style="strokeWidth=2;html=1;shape=mxgraph.flowchart.database;whiteSpace=wrap;" vertex="1" parent="1">
          <mxGeometry x="760" y="95" width="150" height="150" as="geometry" />
        </mxCell>
        <mxCell id="ZpmLZeM6MjsgTmnixDBK-30" value="&lt;h1&gt;Web Browser&lt;/h1&gt;&lt;p&gt;&lt;font style=&quot;font-size: 14px;&quot;&gt;У ролі клієнта виступає браузер, у якому відкрита відповідна html сторінка (яка була отримана у якості відповіді сервера на запит) в якої за допомогою javascript реалізовано логіка взаємодії з користувачем.&lt;/font&gt;&lt;/p&gt;" style="text;html=1;strokeColor=none;fillColor=none;spacing=5;spacingTop=-20;whiteSpace=wrap;overflow=hidden;rounded=0;" vertex="1" parent="1">
          <mxGeometry x="240" y="270" width="190" height="240" as="geometry" />
        </mxCell>
        <mxCell id="ZpmLZeM6MjsgTmnixDBK-31" value="&lt;h1&gt;ASP.NET App&lt;/h1&gt;&lt;p&gt;&lt;font style=&quot;font-size: 14px;&quot;&gt;Застосунок, який за допомогою відповідного фреймворку постійно прослуховує вказаний порт, та при отриманні запиту починає процес його обробки, після закінчення якого відправляє сформовану відповідь до клієнта&lt;/font&gt;&lt;/p&gt;" style="text;html=1;strokeColor=none;fillColor=none;spacing=5;spacingTop=-20;whiteSpace=wrap;overflow=hidden;rounded=0;" vertex="1" parent="1">
          <mxGeometry x="490" y="270" width="190" height="230" as="geometry" />
        </mxCell>
        <mxCell id="ZpmLZeM6MjsgTmnixDBK-32" value="&lt;h1&gt;MSSQL Database&lt;/h1&gt;&lt;p&gt;&lt;font style=&quot;font-size: 14px;&quot;&gt;База даних проекту. Основна задача: збереження даних користувачів&lt;/font&gt;&lt;/p&gt;" style="text;html=1;strokeColor=none;fillColor=none;spacing=5;spacingTop=-20;whiteSpace=wrap;overflow=hidden;rounded=0;" vertex="1" parent="1">
          <mxGeometry x="740" y="270" width="220" height="120" as="geometry" />
        </mxCell>
        <mxCell id="ZpmLZeM6MjsgTmnixDBK-33" value="&lt;h1&gt;User&lt;/h1&gt;&lt;p&gt;&lt;font style=&quot;font-size: 14px;&quot;&gt;Користувач, який на своєму пристрої взаємодіє з нашим UI&lt;/font&gt;&lt;/p&gt;" style="text;html=1;strokeColor=none;fillColor=none;spacing=5;spacingTop=-20;whiteSpace=wrap;overflow=hidden;rounded=0;" vertex="1" parent="1">
          <mxGeometry x="30" y="270" width="190" height="120" as="geometry" />
        </mxCell>
        <mxCell id="ZpmLZeM6MjsgTmnixDBK-34" value="&lt;div style=&quot;text-align: justify;&quot;&gt;&lt;span style=&quot;font-size: 14px; background-color: initial;&quot;&gt;Між клієнтом та сервером реалізована взаємодія, що побудована на HTTP протоколі&lt;/span&gt;&lt;/div&gt;" style="text;html=1;strokeColor=none;fillColor=none;align=left;verticalAlign=middle;whiteSpace=wrap;rounded=0;" vertex="1" parent="1">
          <mxGeometry x="340" y="25" width="180" height="70" as="geometry" />
        </mxCell>
      </root>
    </mxGraphModel>
  </diagram>
</mxfile>
